<?xml version="1.0" encoding="UTF-8" standalone="no"?>
<svg
   xmlns:dc="http://purl.org/dc/elements/1.1/"
   xmlns:cc="http://creativecommons.org/ns#"
   xmlns:rdf="http://www.w3.org/1999/02/22-rdf-syntax-ns#"
   xmlns:svg="http://www.w3.org/2000/svg"
   xmlns="http://www.w3.org/2000/svg"
   viewBox="0 0 243.35284 243.30508"
   height="243.30508"
   width="243.35284"
   xml:space="preserve"
   id="svg2"
   version="1.1"><metadata
     id="metadata8"><rdf:RDF><cc:Work
         rdf:about=""><dc:format>image/svg+xml</dc:format><dc:type
           rdf:resource="http://purl.org/dc/dcmitype/StillImage" /><dc:title></dc:title></cc:Work></rdf:RDF></metadata><defs
     id="defs6"><clipPath
       id="clipPath1256"
       clipPathUnits="userSpaceOnUse"><path
         id="path1254"
         d="m 143.7,450.06 h 21.72 v 12.18 H 143.7 Z" /></clipPath></defs><g
     style="display:inline"
     transform="matrix(1.3333333,0,0,-1.3333333,-282.17796,925.11864)"
     id="g10" /><g
     transform="translate(-282.17796,-130.88136)"
     id="layer1"><g
       transform="translate(-238.27119,-176.74576)"
       id="g2357"><path
         style="fill:#000000;fill-opacity:1;stroke:none;stroke-width:1px;stroke-linecap:butt;stroke-linejoin:miter;stroke-opacity:1"
         d="m 520.44915,307.62712 41.6695,0.27966 v 95.64407 l -20.69491,21.25424 -20.97459,-20.97458 z"
         id="path2319" /><path
         style="fill:#000000;fill-opacity:1;stroke:none;stroke-width:1px;stroke-linecap:butt;stroke-linejoin:miter;stroke-opacity:1"
         d="m 566.59323,307.62712 v 91.16949 l 91.16949,-90.88983 z"
         id="path2323" /><path
         style="fill:#000000;fill-opacity:1;stroke:none;stroke-width:1px;stroke-linecap:butt;stroke-linejoin:miter;stroke-opacity:1"
         d="m 520.72882,504.50848 91.44915,0.27966 -91.44915,-91.16949 z"
         id="path2325" /><path
         style="fill:#000000;fill-opacity:1;stroke:none;stroke-width:1px;stroke-linecap:butt;stroke-linejoin:miter;stroke-opacity:1"
         d="m 616.65255,358.24577 0.27966,82.77966 -18.73729,18.17796 0.27966,22.65255 L 546.17797,429 Z"
         id="path2327" /><path
         style="fill:#000000;fill-opacity:1;stroke:none;stroke-width:1px;stroke-linecap:butt;stroke-linejoin:miter;stroke-opacity:1"
         d="m 520.72882,509.26272 0.27966,41.11017 95.92373,0.55932 20.13559,-20.69492 -20.69491,-20.69491 z"
         id="path2329" /><path
         style="fill:#000000;fill-opacity:1;stroke:none;stroke-width:1px;stroke-linecap:butt;stroke-linejoin:miter;stroke-opacity:1"
         d="m 642.1017,525.48305 38.87288,-39.15254 v -22.9322 l -9.22881,-8.66949 h -60.12712 l -8.66949,8.94915 v 22.9322 z"
         id="path2331" /><path
         style="fill:#000000;fill-opacity:1;stroke:none;stroke-width:1.00300026px;stroke-linecap:butt;stroke-linejoin:miter;stroke-opacity:1"
         d="m 641.82204,333.07627 -20.41525,20.81929 0.27966,95.93751 41.11017,0.28134 v -96.50019 z"
         id="path2333" /><path
         id="path2335"
         d="m 646.85594,328.60171 20.79441,20.41525 95.8229,-0.27966 0.281,-41.11017 h -96.3849 z"
         style="fill:#000000;fill-opacity:1;stroke:none;stroke-width:1.00240099px;stroke-linecap:butt;stroke-linejoin:miter;stroke-opacity:1" /><path
         id="path2337"
         d="m 763.72032,353.71739 -91.44915,-0.27966 91.44915,91.16949 z"
         style="fill:#000000;fill-opacity:1;stroke:none;stroke-width:1px;stroke-linecap:butt;stroke-linejoin:miter;stroke-opacity:1" /><path
         id="path2339"
         d="m 668.38983,358.24577 -0.27966,82.77966 18.73729,18.17796 -0.27966,22.65255 L 738.86441,429 Z"
         style="fill:#000000;fill-opacity:1;stroke:none;stroke-width:1px;stroke-linecap:butt;stroke-linejoin:miter;stroke-opacity:1" /><path
         style="fill:#000000;fill-opacity:1;stroke:none;stroke-width:1px;stroke-linecap:butt;stroke-linejoin:miter;stroke-opacity:1"
         d="m 717.43642,550.45892 0.27966,-91.44915 -91.16949,91.44915 z"
         id="path2341" /><path
         style="fill:#000000;fill-opacity:1;stroke:none;stroke-width:1.00240099px;stroke-linecap:butt;stroke-linejoin:miter;stroke-opacity:1"
         d="m 742.82741,433.86418 -20.41525,20.79441 0.27966,95.8229 41.11017,0.281 v -96.3849 z"
         id="path2343" /></g></g></svg>