<?xml version="1.0" encoding="UTF-8" standalone="no"?>
<svg
   xmlns:dc="http://purl.org/dc/elements/1.1/"
   xmlns:cc="http://creativecommons.org/ns#"
   xmlns:rdf="http://www.w3.org/1999/02/22-rdf-syntax-ns#"
   xmlns:svg="http://www.w3.org/2000/svg"
   xmlns="http://www.w3.org/2000/svg"
   version="1.1"
   id="svg2"
   xml:space="preserve"
   width="242.07425"
   height="242.02834"
   viewBox="0 0 242.07425 242.02833"><metadata
     id="metadata8"><rdf:RDF><cc:Work
         rdf:about=""><dc:format>image/svg+xml</dc:format><dc:type
           rdf:resource="http://purl.org/dc/dcmitype/StillImage" /><dc:title></dc:title></cc:Work></rdf:RDF></metadata><defs
     id="defs6"><clipPath
       clipPathUnits="userSpaceOnUse"
       id="clipPath1256"><path
         d="m 143.7,450.06 h 21.72 v 12.18 H 143.7 Z"
         id="path1254" /></clipPath></defs><g
     id="g10"
     transform="matrix(1.3333333,0,0,-1.3333333,-282.17796,925.11864)"
     style="display:inline" /><path
     id="path2319"
     d="M 0,0 40.08072,0.26899709 V 92.26634 L 20.174868,112.71019 0,92.535337 Z"
     style="fill:#000000;fill-opacity:1;stroke:none;stroke-width:0.96187186px;stroke-linecap:butt;stroke-linejoin:miter;stroke-opacity:1" /><path
     id="path2323"
     d="M 48.384693,0 V 82.796339 L 131.18103,0.25397558 Z"
     style="fill:#000000;fill-opacity:1;stroke:none;stroke-width:0.90815842px;stroke-linecap:butt;stroke-linejoin:miter;stroke-opacity:1" /><path
     id="path2325"
     d="M 0.26900671,193.3858 84.586401,193.64364 0.26900671,109.5841 Z"
     style="fill:#000000;fill-opacity:1;stroke:none;stroke-width:0.92201394px;stroke-linecap:butt;stroke-linejoin:miter;stroke-opacity:1" /><path
     id="path2327"
     d="m 94.535346,51.288291 0.268997,79.623379 -18.022873,17.48487 0.268997,21.78885 -50.302639,-50.84064 z"
     style="fill:#000000;fill-opacity:1;stroke:none;stroke-width:0.96187186px;stroke-linecap:butt;stroke-linejoin:miter;stroke-opacity:1" /><path
     id="path2329"
     d="m 0.26900671,201.94761 0.26899709,39.54272 92.2663392,0.538 19.367857,-19.90587 -19.905851,-19.90585 z"
     style="fill:#000000;fill-opacity:1;stroke:none;stroke-width:0.96187186px;stroke-linecap:butt;stroke-linejoin:miter;stroke-opacity:1" /><path
     id="path2331"
     d="m 119.97305,214.14908 34.56577,-37.65972 v -22.05784 l -8.20626,-8.33894 H 92.867521 l -7.708912,8.60794 v 22.05783 z"
     style="fill:#000000;fill-opacity:1;stroke:none;stroke-width:0.92482245px;stroke-linecap:butt;stroke-linejoin:miter;stroke-opacity:1" /><path
     id="path2333"
     d="m 120.347,28.478388 -17.839,18.192051 0.24437,83.830801 35.92238,0.24584 V 46.424602 Z"
     style="fill:#000000;fill-opacity:1;stroke:none;stroke-width:0.87642908px;stroke-linecap:butt;stroke-linejoin:miter;stroke-opacity:1" /><path
     style="fill:#000000;fill-opacity:1;stroke:none;stroke-width:0.96418136px;stroke-linecap:butt;stroke-linejoin:miter;stroke-opacity:1"
     d="M 129.58714,20.174869 149.58869,39.811724 241.75805,39.542727 242.02833,9.618719e-6 h -92.70992 z"
     id="path2335" /><path
     style="fill:#000000;fill-opacity:1;stroke:none;stroke-width:0.92998552px;stroke-linecap:butt;stroke-linejoin:miter;stroke-opacity:1"
     d="m 241.9957,48.324018 -85.04639,-0.26008 85.04639,84.786312 z"
     id="path2337" /><path
     style="fill:#000000;fill-opacity:1;stroke:none;stroke-width:0.96187186px;stroke-linecap:butt;stroke-linejoin:miter;stroke-opacity:1"
     d="m 146.29998,53.288291 -0.269,79.623379 18.02287,17.48487 -0.26899,21.78885 50.30264,-50.84064 z"
     id="path2339" /><path
     id="path2341"
     d="m 193.48759,241.57308 0.25792,-84.34296 -84.08503,84.34296 z"
     style="fill:#000000;fill-opacity:1;stroke:none;stroke-width:0.92229348px;stroke-linecap:butt;stroke-linejoin:miter;stroke-opacity:1" /><path
     id="path2343"
     d="m 221.89939,129.42388 -19.63685,20.00156 0.269,92.16935 39.54271,0.27029 v -92.70993 z"
     style="fill:#000000;fill-opacity:1;stroke:none;stroke-width:0.96418136px;stroke-linecap:butt;stroke-linejoin:miter;stroke-opacity:1" /></svg>