<?xml version="1.0" encoding="UTF-8" standalone="no"?>
<svg
   xmlns:dc="http://purl.org/dc/elements/1.1/"
   xmlns:cc="http://creativecommons.org/ns#"
   xmlns:rdf="http://www.w3.org/1999/02/22-rdf-syntax-ns#"
   xmlns:svg="http://www.w3.org/2000/svg"
   xmlns="http://www.w3.org/2000/svg"
   version="1.1"
   id="svg2"
   xml:space="preserve"
   width="229.73633"
   height="229.67136"
   viewBox="0 0 229.73632 229.67135"><metadata
     id="metadata8"><rdf:RDF><cc:Work
         rdf:about=""><dc:format>image/svg+xml</dc:format><dc:type
           rdf:resource="http://purl.org/dc/dcmitype/StillImage" /><dc:title></dc:title></cc:Work></rdf:RDF></metadata><defs
     id="defs6"><clipPath
       clipPathUnits="userSpaceOnUse"
       id="clipPath1256"><path
         d="m 143.7,450.06 h 21.72 v 12.18 H 143.7 Z"
         id="path1254" /></clipPath></defs><g
     id="g10"
     transform="matrix(1.3333333,0,0,-1.3333333,-288.98655,918.31005)"
     style="display:inline" /><g
     id="g5438"><path
       style="fill:none;fill-opacity:1;stroke:#000000;stroke-width:17;stroke-linecap:butt;stroke-linejoin:miter;stroke-miterlimit:4;stroke-dasharray:none;stroke-opacity:1"
       id="path2343"
       d="m 153.36133,15.308594 -5.32617,5.447265 5.40625,5.306641 74.37695,-0.216797 0.0723,-10.537109 z m -91.908205,0.04687 V 54.291016 L 100.38867,15.474609 Z m -46.144531,0.05664 v 74.449219 l 5.521484,5.521484 5.53125,-5.68164 V 15.486328 Z M 121.5918,47.089844 116.2832,52.501953 116.50195,127 l 10.53711,0.0723 V 52.421875 Z m 67.38281,14.142578 38.98828,38.869138 V 61.351562 Z M 81.019531,87.554688 47.300781,121.4082 66.691406,141.00781 a 15.310413,15.310413 0 0 1 0.394532,-0.41992 l 14.066406,-13.64453 z m 82.105469,0 -0.13477,39.386722 14.06836,13.64648 a 15.310413,15.310413 0 0 1 0.39258,0.41992 L 196.84375,121.4082 Z M 15.587891,142.87109 v 38.74805 l 38.986328,0.11914 z m 207.009769,4.99219 -5.3086,5.4082 0.2168,74.37696 10.53906,0.0723 V 153.19141 Z M 97.808594,162.41016 v 10.19922 l 23.765626,23.5957 23.64258,-23.81055 v -9.98437 z m 84.035156,26.12695 -38.86719,38.98633 h 38.74805 z m -166.150391,28.45117 0.07031,10.53711 74.291016,0.43359 5.060546,-5.20117 -5.550781,-5.55078 z"
       transform="translate(-6.808594,-6.808594)" /><path
       style="fill:#000000;fill-opacity:1;stroke:none;stroke-width:12.39290428;stroke-linecap:butt;stroke-linejoin:miter;stroke-miterlimit:4;stroke-dasharray:none;stroke-dashoffset:0;stroke-opacity:1;paint-order:stroke fill markers"
       d="m 62.855044,21.821968 v -4.738464 h 5.26415 5.264149 l -4.696344,4.738464 c -2.58299,2.606155 -4.951857,4.738463 -5.26415,4.738463 -0.312293,0 -0.567805,-2.132308 -0.567805,-4.738463 z"
       id="path5393" /><path
       style="fill:#000000;fill-opacity:1;stroke:none;stroke-width:12.39290428;stroke-linecap:butt;stroke-linejoin:miter;stroke-miterlimit:4;stroke-dasharray:none;stroke-dashoffset:0;stroke-opacity:1;paint-order:stroke fill markers"
       d="m 167.15855,118.83661 -3.16225,-3.22209 0.32779,-6.24514 c 0.18028,-3.43483 0.56334,-6.4807 0.85125,-6.76861 0.2879,-0.2879 3.374,2.32708 6.858,5.81108 l 6.33454,6.33454 -3.60118,3.65616 c -1.98065,2.01088 -3.79124,3.65615 -4.02354,3.65615 -0.23231,0 -1.84538,-1.44994 -3.58461,-3.22209 z"
       id="path5395" /><path
       style="fill:#000000;fill-opacity:1;stroke:none;stroke-width:12.39290428;stroke-linecap:butt;stroke-linejoin:miter;stroke-miterlimit:4;stroke-dasharray:none;stroke-dashoffset:0;stroke-opacity:1;paint-order:stroke fill markers"
       d="M 158.90006,135.09329 147.4184,123.57124 V 92.197204 c 0,-17.25572 0.24769,-31.374037 0.55044,-31.374037 0.30274,0 12.65798,12.110865 27.4561,26.913033 l 26.90566,26.91304 -15.97444,15.98304 -15.97444,15.98305 z"
       id="path5397" /><path
       style="fill:#000000;fill-opacity:1;stroke:none;stroke-width:12.39290428;stroke-linecap:butt;stroke-linejoin:miter;stroke-miterlimit:4;stroke-dasharray:none;stroke-dashoffset:0;stroke-opacity:1;paint-order:stroke fill markers"
       d="m 207.71986,68.274221 c -2.29289,-2.317071 -4.1689,-4.44938 -4.1689,-4.738464 0,-0.289083 2.13231,-0.525606 4.73847,-0.525606 h 4.73846 v 4.738463 c 0,2.606155 -0.2563,4.738464 -0.56956,4.738464 -0.31327,0 -2.44557,-1.895786 -4.73847,-4.212857 z"
       id="path5399" /><path
       style="fill:#000000;fill-opacity:1;stroke:none;stroke-width:12.39290428;stroke-linecap:butt;stroke-linejoin:miter;stroke-miterlimit:4;stroke-dasharray:none;stroke-dashoffset:0;stroke-opacity:1;paint-order:stroke fill markers"
       d="M 195.34681,79.95633 C 177.00512,61.611392 161.99828,46.353908 161.99828,46.050811 c 0,-0.303098 15.1722,-0.465799 33.71599,-0.361558 l 33.71599,0.18953 0.18953,33.71599 c 0.10425,18.543793 -0.0611,33.715997 -0.36746,33.715997 -0.30635,0 -15.56384,-15.009504 -33.90552,-33.35444 z"
       id="path5401" /><path
       style="fill:#000000;fill-opacity:1;stroke:none;stroke-width:12.39290428;stroke-linecap:butt;stroke-linejoin:miter;stroke-miterlimit:4;stroke-dasharray:none;stroke-dashoffset:0;stroke-opacity:1;paint-order:stroke fill markers"
       d="m 55.92397,118.40802 -3.59579,-3.65069 6.15858,-6.19074 c 3.387219,-3.40491 6.411858,-6.19074 6.721421,-6.19074 0.309562,0 0.56284,3.2139 0.56284,7.142 v 7.14199 l -2.764465,2.69943 c -1.520456,1.48469 -2.926989,2.69943 -3.12563,2.69943 -0.198641,0 -1.979271,-1.64281 -3.956956,-3.65068 z"
       id="path5403" /><path
       style="fill:#000000;fill-opacity:1;stroke:none;stroke-width:12.39290428;stroke-linecap:butt;stroke-linejoin:miter;stroke-miterlimit:4;stroke-dasharray:none;stroke-dashoffset:0;stroke-opacity:1;paint-order:stroke fill markers"
       d="M 44.14605,130.6869 28.235266,114.76378 54.992327,88.006715 C 69.708711,73.290332 81.922956,61.423221 82.135093,61.635359 c 0.212138,0.212138 0.579972,14.140208 0.81741,30.951267 l 0.431704,30.565564 -11.663687,11.72892 -11.663686,11.72892 z"
       id="path5405" /><path
       style="fill:#000000;fill-opacity:1;stroke:none;stroke-width:4.38155365;stroke-linecap:butt;stroke-linejoin:miter;stroke-miterlimit:4;stroke-dasharray:none;stroke-dashoffset:0;stroke-opacity:1;paint-order:stroke fill markers"
       d="M 46.0155,33.960798 V 0.0467158 h 34.021474 c 18.711812,0 34.021476,0.058302 34.021476,0.1295603 0,0.1808824 -67.521898,67.5070569 -67.809249,67.6126909 C 46.110174,67.840077 46.0155,54.136019 46.0155,33.960798 Z"
       id="path5407" /><path
       style="fill:#000000;fill-opacity:1;stroke:none;stroke-width:4.38155365;stroke-linecap:butt;stroke-linejoin:miter;stroke-miterlimit:4;stroke-dasharray:none;stroke-dashoffset:0;stroke-opacity:1;paint-order:stroke fill markers"
       d="m 19.275137,166.354 -2.126342,-0.0868 v -4.75773 c 0,-2.61676 0.08816,-4.75774 0.195917,-4.75774 0.252578,0 9.598144,9.35059 9.598144,9.6033 0,0.18308 -3.170269,0.18266 -7.667719,-0.001 z"
       id="path5409" /><path
       style="fill:#000000;fill-opacity:1;stroke:none;stroke-width:4.38155365;stroke-linecap:butt;stroke-linejoin:miter;stroke-miterlimit:4;stroke-dasharray:none;stroke-dashoffset:0;stroke-opacity:1;paint-order:stroke fill markers"
       d="m 12.445069,183.36324 -12.3070106,-0.0695 v -33.76124 c 0,-18.56868 0.086987,-33.75628 0.1933038,-33.75023 0.1063171,0.006 15.5029668,15.25314 34.2147778,33.88242 l 34.021473,33.87142 -21.907767,-0.0517 c -12.049272,-0.0284 -27.445922,-0.083 -34.214777,-0.12119 z"
       id="path5411" /><path
       style="fill:#000000;fill-opacity:1;stroke:none;stroke-width:4.38155365;stroke-linecap:butt;stroke-linejoin:miter;stroke-miterlimit:4;stroke-dasharray:none;stroke-dashoffset:0;stroke-opacity:1;paint-order:stroke fill markers"
       d="m 108.06603,170.80069 c -3.65022,-3.59375 -6.63676,-6.6012 -6.63676,-6.68321 0,-0.082 5.9151,-0.14911 13.14466,-0.14911 7.22956,0 13.14466,0.0878 13.14466,0.19519 0,0.10736 -2.92855,3.11481 -6.5079,6.68322 l -6.50789,6.48801 z"
       id="path5413" /><path
       style="fill:#000000;fill-opacity:1;stroke:none;stroke-width:4.38155365;stroke-linecap:butt;stroke-linejoin:miter;stroke-miterlimit:4;stroke-dasharray:none;stroke-dashoffset:0;stroke-opacity:1;paint-order:stroke fill markers"
       d="m 98.526986,185.33221 -16.175804,-16.00126 0.06715,-11.12222 0.06715,-11.12223 h 32.217308 32.2173 l 0.0605,10.95388 0.0605,10.95389 -15.99956,16.17308 c -8.79975,8.8952 -16.07586,16.17152 -16.16913,16.1696 -0.0933,-0.002 -7.4487,-7.20405 -16.345394,-16.00474 z"
       id="path5415" /><path
       style="fill:#000000;fill-opacity:1;stroke:none;stroke-width:4.38155365;stroke-linecap:butt;stroke-linejoin:miter;stroke-miterlimit:4;stroke-dasharray:none;stroke-dashoffset:0;stroke-opacity:1;paint-order:stroke fill markers"
       d="m 157.10077,211.97476 c 0,-0.25271 9.08776,-9.34563 9.34033,-9.34563 0.23063,0 0.26099,8.10769 0.0335,8.95641 -0.15382,0.57398 -0.20257,0.57991 -4.76464,0.57991 -2.53508,0 -4.60923,-0.0858 -4.60923,-0.19069 z"
       id="path5417" /><path
       style="fill:#000000;fill-opacity:1;stroke:none;stroke-width:4.38155365;stroke-linecap:butt;stroke-linejoin:miter;stroke-miterlimit:4;stroke-dasharray:none;stroke-dashoffset:0;stroke-opacity:1;paint-order:stroke fill markers"
       d="m 116.12036,228.95969 c 0,-0.295 66.99991,-67.56871 67.29371,-67.56871 0.27628,0 0.31106,28.81966 0.0626,51.89181 l -0.17113,15.8934 h -33.5926 c -18.47593,0 -33.5926,-0.0974 -33.5926,-0.2165 z"
       id="path5419" /></g></svg>