<?xml version="1.0" encoding="UTF-8" standalone="no"?>
<svg
   xmlns:dc="http://purl.org/dc/elements/1.1/"
   xmlns:cc="http://creativecommons.org/ns#"
   xmlns:rdf="http://www.w3.org/1999/02/22-rdf-syntax-ns#"
   xmlns:svg="http://www.w3.org/2000/svg"
   xmlns="http://www.w3.org/2000/svg"
   version="1.1"
   id="svg2"
   xml:space="preserve"
   width="229.73633"
   height="229.67136"
   viewBox="0 0 229.73632 229.67135"><metadata
     id="metadata8"><rdf:RDF><cc:Work
         rdf:about=""><dc:format>image/svg+xml</dc:format><dc:type
           rdf:resource="http://purl.org/dc/dcmitype/StillImage" /><dc:title></dc:title></cc:Work></rdf:RDF></metadata><defs
     id="defs6"><clipPath
       clipPathUnits="userSpaceOnUse"
       id="clipPath1256"><path
         d="m 143.7,450.06 h 21.72 v 12.18 H 143.7 Z"
         id="path1254" /></clipPath></defs><g
     id="g10"
     transform="matrix(1.3333333,0,0,-1.3333333,-288.98655,918.31005)"
     style="display:inline" /><g
     transform="translate(-6.808594,-6.808594)"
     style="display:none"
     id="layer2" /><g
     transform="translate(-6.808594,-6.808594)"
     style="display:inline"
     id="layer3"><g
       id="g5508"><path
         style="fill:none;fill-opacity:1;stroke:#ffffff;stroke-width:17;stroke-linecap:butt;stroke-linejoin:miter;stroke-miterlimit:4;stroke-dasharray:none;stroke-opacity:1"
         id="path2343"
         d="m 153.36133,15.308594 -5.32617,5.447265 5.40625,5.306641 74.37695,-0.216797 0.0723,-10.537109 z m -91.908205,0.04687 V 54.291016 L 100.38867,15.474609 Z m -46.144531,0.05664 v 74.449219 l 5.521484,5.521484 5.53125,-5.68164 V 15.486328 Z M 121.5918,47.089844 116.2832,52.501953 116.50195,127 l 10.53711,0.0723 V 52.421875 Z m 67.38281,14.142578 38.98828,38.869138 V 61.351562 Z M 81.019531,87.554688 47.300781,121.4082 66.691406,141.00781 a 15.310413,15.310413 0 0 1 0.394532,-0.41992 l 14.066406,-13.64453 z m 82.105469,0 -0.13477,39.386722 14.06836,13.64648 a 15.310413,15.310413 0 0 1 0.39258,0.41992 L 196.84375,121.4082 Z M 15.587891,142.87109 v 38.74805 l 38.986328,0.11914 z m 207.009769,4.99219 -5.3086,5.4082 0.2168,74.37696 10.53906,0.0723 V 153.19141 Z M 97.808594,162.41016 v 10.19922 l 23.765626,23.5957 23.64258,-23.81055 v -9.98437 z m 84.035156,26.12695 -38.86719,38.98633 h 38.74805 z m -166.150391,28.45117 0.07031,10.53711 74.291016,0.43359 5.060546,-5.20117 -5.550781,-5.55078 z" /><rect
         style="fill:#fefefe;fill-opacity:1;stroke:none;stroke-width:17;stroke-linecap:butt;stroke-linejoin:miter;stroke-miterlimit:4;stroke-dasharray:none;stroke-dashoffset:0;stroke-opacity:1;paint-order:stroke fill markers"
         id="rect5484"
         width="26.026201"
         height="19.821718"
         x="61.453125"
         y="15.355469" /><rect
         style="fill:#fefefe;fill-opacity:1;stroke:none;stroke-width:17;stroke-linecap:butt;stroke-linejoin:miter;stroke-miterlimit:4;stroke-dasharray:none;stroke-dashoffset:0;stroke-opacity:1;paint-order:stroke fill markers"
         id="rect5488"
         width="22.234329"
         height="20.047346"
         x="203.38943"
         y="62.878975" /><rect
         style="fill:#fefefe;fill-opacity:1;stroke:none;stroke-width:17;stroke-linecap:butt;stroke-linejoin:miter;stroke-miterlimit:4;stroke-dasharray:none;stroke-dashoffset:0;stroke-opacity:1;paint-order:stroke fill markers"
         id="rect5490"
         width="22.598825"
         height="30.982262"
         x="163.29474"
         y="100.05769" /><rect
         style="fill:#fefefe;fill-opacity:1;stroke:none;stroke-width:17;stroke-linecap:butt;stroke-linejoin:miter;stroke-miterlimit:4;stroke-dasharray:none;stroke-dashoffset:0;stroke-opacity:1;paint-order:stroke fill markers"
         id="rect5492"
         width="19.682848"
         height="24.421312"
         x="55.403572"
         y="106.98313" /><rect
         style="fill:#fefefe;fill-opacity:1;stroke:none;stroke-width:17;stroke-linecap:butt;stroke-linejoin:miter;stroke-miterlimit:4;stroke-dasharray:none;stroke-dashoffset:0;stroke-opacity:1;paint-order:stroke fill markers"
         id="rect5494"
         width="17.860363"
         height="18.953854"
         x="17.495865"
         y="157.64824" /><rect
         style="fill:#fefefe;fill-opacity:1;stroke:none;stroke-width:17;stroke-linecap:butt;stroke-linejoin:miter;stroke-miterlimit:4;stroke-dasharray:none;stroke-dashoffset:0;stroke-opacity:1;paint-order:stroke fill markers"
         id="rect5496"
         width="33.533741"
         height="20.047346"
         x="103.5172"
         y="164.93819" /><rect
         style="fill:#fefefe;fill-opacity:1;stroke:none;stroke-width:17;stroke-linecap:butt;stroke-linejoin:miter;stroke-miterlimit:4;stroke-dasharray:none;stroke-dashoffset:0;stroke-opacity:1;paint-order:stroke fill markers"
         id="rect5498"
         width="15.673379"
         height="15.308882"
         x="160.37877"
         y="206.49088" /></g></g></svg>